<svg width="24" height="25" viewBox="0 0 24 25" fill="none" xmlns="http://www.w3.org/2000/svg">
<path fill-rule="evenodd" clip-rule="evenodd" d="M3.50083 14.2109V13.9919C3.53295 13.344 3.7406 12.7162 4.10236 12.1734C4.7045 11.5212 5.1167 10.7221 5.29571 9.85973C5.29571 9.19325 5.29571 8.51726 5.35393 7.85078C5.65469 4.64217 8.82728 2.42375 11.9611 2.42375H12.0387C15.1725 2.42375 18.345 4.64217 18.6555 7.85078C18.7137 8.51726 18.6555 9.19325 18.704 9.85973C18.8854 10.7241 19.2972 11.5257 19.8974 12.1829C20.2618 12.721 20.4698 13.3464 20.4989 13.9919V14.2014C20.5206 15.0718 20.2208 15.9206 19.6548 16.5911C18.907 17.3752 17.8921 17.863 16.8024 17.9622C13.607 18.305 10.383 18.305 7.18762 17.9622C6.09914 17.8587 5.08576 17.3717 4.33521 16.5911C3.778 15.9201 3.48224 15.0763 3.50083 14.2109Z" stroke="#8E92BC" stroke-width="1.5" stroke-linecap="round" stroke-linejoin="round"/>
<path d="M9.55493 21.2755C10.0542 21.9022 10.7874 22.3078 11.5922 22.4025C12.3971 22.4972 13.2072 22.2732 13.8433 21.7801C14.0389 21.6343 14.2149 21.4648 14.3672 21.2755" stroke="#8E92BC" stroke-width="1.5" stroke-linecap="round" stroke-linejoin="round"/>
</svg>
